<mxfile host="Electron" modified="2023-05-02T17:49:01.719Z" agent="Mozilla/5.0 (Windows NT 10.0; Win64; x64) AppleWebKit/537.36 (KHTML, like Gecko) draw.io/21.1.2 Chrome/106.0.5249.199 Electron/21.4.3 Safari/537.36" etag="rJCHN9fnnV8JxEtfnS9j" version="21.1.2" type="device">
  <diagram name="Page-1" id="uvr0QpTTJTFKmf1WSt6U">
    <mxGraphModel dx="2002" dy="1644" grid="1" gridSize="10" guides="1" tooltips="1" connect="1" arrows="1" fold="1" page="1" pageScale="1" pageWidth="1654" pageHeight="1169" background="none" math="0" shadow="0">
      <root>
        <mxCell id="0" />
        <mxCell id="1" parent="0" />
        <mxCell id="oafEtDsmrgT4EUsuNafD-2" value="Explanation of Symbols" style="swimlane;whiteSpace=wrap;html=1;labelBackgroundColor=none;swimlaneFillColor=none;shadow=0;rounded=1;" parent="1" vertex="1">
          <mxGeometry x="40" y="40" width="210" height="270" as="geometry" />
        </mxCell>
        <mxCell id="oafEtDsmrgT4EUsuNafD-3" value="" style="swimlane;startSize=0;labelBackgroundColor=none;swimlaneFillColor=none;shadow=0;rounded=1;" parent="oafEtDsmrgT4EUsuNafD-2" vertex="1">
          <mxGeometry x="5" y="30" width="195" height="50" as="geometry" />
        </mxCell>
        <mxCell id="oafEtDsmrgT4EUsuNafD-7" value="" style="pointerEvents=1;shadow=0;dashed=0;html=1;strokeColor=none;labelPosition=center;verticalLabelPosition=bottom;verticalAlign=top;outlineConnect=0;align=center;shape=mxgraph.office.concepts.folder;fillColor=#CCCBCB;swimlaneFillColor=none;" parent="oafEtDsmrgT4EUsuNafD-3" vertex="1">
          <mxGeometry x="5" y="2.5" width="50" height="45" as="geometry" />
        </mxCell>
        <mxCell id="oafEtDsmrgT4EUsuNafD-6" value="Basic Folder" style="text;html=1;align=center;verticalAlign=middle;resizable=0;points=[];autosize=1;strokeColor=none;fillColor=none;labelBackgroundColor=none;swimlaneFillColor=none;shadow=0;" parent="oafEtDsmrgT4EUsuNafD-3" vertex="1">
          <mxGeometry x="95" y="10" width="90" height="30" as="geometry" />
        </mxCell>
        <mxCell id="oafEtDsmrgT4EUsuNafD-4" value="" style="swimlane;startSize=0;labelBackgroundColor=none;swimlaneFillColor=none;shadow=0;rounded=1;" parent="oafEtDsmrgT4EUsuNafD-2" vertex="1">
          <mxGeometry x="5" y="90" width="195" height="50" as="geometry" />
        </mxCell>
        <mxCell id="oafEtDsmrgT4EUsuNafD-8" value="" style="pointerEvents=1;shadow=0;dashed=0;html=1;strokeColor=none;labelPosition=center;verticalLabelPosition=bottom;verticalAlign=top;outlineConnect=0;align=center;shape=mxgraph.office.concepts.folder;fillColor=#DA4026;swimlaneFillColor=none;" parent="oafEtDsmrgT4EUsuNafD-4" vertex="1">
          <mxGeometry x="5" y="2.5" width="50" height="45" as="geometry" />
        </mxCell>
        <mxCell id="oafEtDsmrgT4EUsuNafD-9" value="Folder Related to IntelliJ" style="text;html=1;align=center;verticalAlign=middle;resizable=0;points=[];autosize=1;strokeColor=none;fillColor=none;swimlaneFillColor=none;shadow=0;" parent="oafEtDsmrgT4EUsuNafD-4" vertex="1">
          <mxGeometry x="55" y="10" width="150" height="30" as="geometry" />
        </mxCell>
        <mxCell id="oafEtDsmrgT4EUsuNafD-11" value="" style="swimlane;startSize=0;labelBackgroundColor=none;swimlaneFillColor=none;shadow=0;" parent="oafEtDsmrgT4EUsuNafD-2" vertex="1">
          <mxGeometry x="5" y="150" width="195" height="50" as="geometry" />
        </mxCell>
        <mxCell id="oafEtDsmrgT4EUsuNafD-10" value="" style="verticalLabelPosition=bottom;html=1;verticalAlign=top;align=center;strokeColor=none;fillColor=#00BEF2;shape=mxgraph.azure.code_file;pointerEvents=1;swimlaneFillColor=none;shadow=0;" parent="oafEtDsmrgT4EUsuNafD-11" vertex="1">
          <mxGeometry x="5" y="5" width="40" height="40" as="geometry" />
        </mxCell>
        <mxCell id="oafEtDsmrgT4EUsuNafD-14" value=".java File" style="text;html=1;align=center;verticalAlign=middle;resizable=0;points=[];autosize=1;strokeColor=none;fillColor=none;swimlaneFillColor=none;shadow=0;" parent="oafEtDsmrgT4EUsuNafD-11" vertex="1">
          <mxGeometry x="105" y="10" width="70" height="30" as="geometry" />
        </mxCell>
        <mxCell id="oafEtDsmrgT4EUsuNafD-16" value="" style="swimlane;startSize=0;labelBackgroundColor=none;swimlaneFillColor=none;shadow=0;" parent="oafEtDsmrgT4EUsuNafD-2" vertex="1">
          <mxGeometry x="5" y="210" width="195" height="50" as="geometry" />
        </mxCell>
        <mxCell id="oafEtDsmrgT4EUsuNafD-18" value="Basic File" style="text;html=1;align=center;verticalAlign=middle;resizable=0;points=[];autosize=1;strokeColor=none;fillColor=none;swimlaneFillColor=none;shadow=0;" parent="oafEtDsmrgT4EUsuNafD-16" vertex="1">
          <mxGeometry x="100" y="10" width="80" height="30" as="geometry" />
        </mxCell>
        <mxCell id="oafEtDsmrgT4EUsuNafD-15" value="" style="verticalLabelPosition=bottom;html=1;verticalAlign=top;align=center;strokeColor=none;fillColor=#00BEF2;shape=mxgraph.azure.file_2;pointerEvents=1;swimlaneFillColor=none;shadow=0;" parent="oafEtDsmrgT4EUsuNafD-16" vertex="1">
          <mxGeometry x="10" y="5" width="40" height="40" as="geometry" />
        </mxCell>
        <mxCell id="oafEtDsmrgT4EUsuNafD-20" value="Structure" style="swimlane;whiteSpace=wrap;html=1;swimlaneFillColor=none;shadow=0;rounded=1;" parent="1" vertex="1">
          <mxGeometry x="280" y="40" width="1330" height="1050" as="geometry" />
        </mxCell>
        <mxCell id="oafEtDsmrgT4EUsuNafD-21" value="Root" style="swimlane;whiteSpace=wrap;html=1;swimlaneFillColor=none;shadow=0;rounded=1;" parent="oafEtDsmrgT4EUsuNafD-20" vertex="1">
          <mxGeometry x="10" y="30" width="330" height="470" as="geometry" />
        </mxCell>
        <mxCell id="oafEtDsmrgT4EUsuNafD-22" value="/project" style="pointerEvents=1;shadow=0;dashed=0;html=1;strokeColor=none;labelPosition=center;verticalLabelPosition=bottom;verticalAlign=top;outlineConnect=0;align=center;shape=mxgraph.office.concepts.folder;fillColor=#CCCBCB;swimlaneFillColor=none;" parent="oafEtDsmrgT4EUsuNafD-21" vertex="1">
          <mxGeometry x="10" y="240" width="50" height="45" as="geometry" />
        </mxCell>
        <mxCell id="oafEtDsmrgT4EUsuNafD-30" value="/src" style="pointerEvents=1;shadow=0;dashed=0;html=1;strokeColor=none;labelPosition=center;verticalLabelPosition=bottom;verticalAlign=top;outlineConnect=0;align=center;shape=mxgraph.office.concepts.folder;fillColor=#CCCBCB;swimlaneFillColor=none;" parent="oafEtDsmrgT4EUsuNafD-21" vertex="1">
          <mxGeometry x="10" y="320" width="50" height="45" as="geometry" />
        </mxCell>
        <mxCell id="oafEtDsmrgT4EUsuNafD-35" value="/assets" style="sketch=0;pointerEvents=1;shadow=0;dashed=0;html=1;strokeColor=none;labelPosition=center;verticalLabelPosition=bottom;verticalAlign=top;outlineConnect=0;align=center;shape=mxgraph.office.concepts.folder;fillColor=#CCCBCB;labelBackgroundColor=none;fontFamily=Helvetica;fontSize=12;fontColor=default;" parent="oafEtDsmrgT4EUsuNafD-21" vertex="1">
          <mxGeometry x="10" y="100" width="50" height="45" as="geometry" />
        </mxCell>
        <mxCell id="oafEtDsmrgT4EUsuNafD-54" value="The Root folder of the project contains: &lt;br&gt;/assets -&amp;gt; for images and icons&lt;br&gt;/project -&amp;gt; for information and blueprints of the project&lt;br&gt;/src -&amp;gt; the source folder" style="text;html=1;align=left;verticalAlign=middle;resizable=0;points=[];autosize=1;fontSize=12;fontFamily=Helvetica;fontStyle=1;fontColor=#FFB366;" parent="oafEtDsmrgT4EUsuNafD-21" vertex="1">
          <mxGeometry x="10" y="390" width="340" height="70" as="geometry" />
        </mxCell>
        <mxCell id="0BQDrD2ysgoBEjSAyRMc-1" value=".idea" style="pointerEvents=1;shadow=0;dashed=0;html=1;strokeColor=none;labelPosition=center;verticalLabelPosition=bottom;verticalAlign=top;outlineConnect=0;align=center;shape=mxgraph.office.concepts.folder;fillColor=#DA4026;swimlaneFillColor=none;" parent="oafEtDsmrgT4EUsuNafD-21" vertex="1">
          <mxGeometry x="10" y="30" width="50" height="45" as="geometry" />
        </mxCell>
        <mxCell id="zBQfCMHsh7m2i-9GV9Rl-1" value="out" style="pointerEvents=1;shadow=0;dashed=0;html=1;strokeColor=none;labelPosition=center;verticalLabelPosition=bottom;verticalAlign=top;outlineConnect=0;align=center;shape=mxgraph.office.concepts.folder;fillColor=#DA4026;swimlaneFillColor=none;" vertex="1" parent="oafEtDsmrgT4EUsuNafD-21">
          <mxGeometry x="10" y="170" width="50" height="45" as="geometry" />
        </mxCell>
        <mxCell id="oafEtDsmrgT4EUsuNafD-36" value="/assets" style="swimlane;whiteSpace=wrap;html=1;shadow=0;dashed=0;labelBackgroundColor=none;sketch=0;pointerEvents=1;fontFamily=Helvetica;fontSize=12;rounded=1;" parent="oafEtDsmrgT4EUsuNafD-20" vertex="1">
          <mxGeometry x="360" y="30" width="290" height="470" as="geometry" />
        </mxCell>
        <mxCell id="oafEtDsmrgT4EUsuNafD-41" style="edgeStyle=orthogonalEdgeStyle;shape=connector;rounded=1;orthogonalLoop=1;jettySize=auto;html=1;labelBackgroundColor=default;strokeColor=default;fontFamily=Helvetica;fontSize=12;fontColor=default;endArrow=classic;startSize=23;" parent="oafEtDsmrgT4EUsuNafD-36" source="oafEtDsmrgT4EUsuNafD-38" target="oafEtDsmrgT4EUsuNafD-39" edge="1">
          <mxGeometry relative="1" as="geometry" />
        </mxCell>
        <mxCell id="oafEtDsmrgT4EUsuNafD-38" value="/assets" style="sketch=0;pointerEvents=1;shadow=0;dashed=0;html=1;strokeColor=none;labelPosition=center;verticalLabelPosition=bottom;verticalAlign=top;outlineConnect=0;align=center;shape=mxgraph.office.concepts.folder;fillColor=#CCCBCB;labelBackgroundColor=none;fontFamily=Helvetica;fontSize=12;fontColor=default;" parent="oafEtDsmrgT4EUsuNafD-36" vertex="1">
          <mxGeometry x="10" y="32.5" width="50" height="45" as="geometry" />
        </mxCell>
        <mxCell id="oafEtDsmrgT4EUsuNafD-39" value="/backgrounds" style="pointerEvents=1;shadow=0;dashed=0;html=1;strokeColor=none;labelPosition=center;verticalLabelPosition=bottom;verticalAlign=top;outlineConnect=0;align=center;shape=mxgraph.office.concepts.folder;fillColor=#CCCBCB;swimlaneFillColor=none;" parent="oafEtDsmrgT4EUsuNafD-36" vertex="1">
          <mxGeometry x="70" y="82.5" width="50" height="45" as="geometry" />
        </mxCell>
        <mxCell id="oafEtDsmrgT4EUsuNafD-44" style="edgeStyle=orthogonalEdgeStyle;shape=connector;rounded=1;orthogonalLoop=1;jettySize=auto;html=1;labelBackgroundColor=default;strokeColor=default;fontFamily=Helvetica;fontSize=12;fontColor=default;endArrow=classic;startSize=23;" parent="oafEtDsmrgT4EUsuNafD-36" source="oafEtDsmrgT4EUsuNafD-40" target="oafEtDsmrgT4EUsuNafD-43" edge="1">
          <mxGeometry relative="1" as="geometry" />
        </mxCell>
        <mxCell id="oafEtDsmrgT4EUsuNafD-40" value="/icons" style="pointerEvents=1;shadow=0;dashed=0;html=1;strokeColor=none;labelPosition=center;verticalLabelPosition=bottom;verticalAlign=top;outlineConnect=0;align=center;shape=mxgraph.office.concepts.folder;fillColor=#CCCBCB;swimlaneFillColor=none;" parent="oafEtDsmrgT4EUsuNafD-36" vertex="1">
          <mxGeometry x="70" y="160" width="50" height="45" as="geometry" />
        </mxCell>
        <mxCell id="oafEtDsmrgT4EUsuNafD-43" value="/buttonIcons" style="pointerEvents=1;shadow=0;dashed=0;html=1;strokeColor=none;labelPosition=center;verticalLabelPosition=bottom;verticalAlign=top;outlineConnect=0;align=center;shape=mxgraph.office.concepts.folder;fillColor=#CCCBCB;swimlaneFillColor=none;" parent="oafEtDsmrgT4EUsuNafD-36" vertex="1">
          <mxGeometry x="130" y="220" width="50" height="45" as="geometry" />
        </mxCell>
        <mxCell id="oafEtDsmrgT4EUsuNafD-45" value="/labelIcons" style="pointerEvents=1;shadow=0;dashed=0;html=1;strokeColor=none;labelPosition=center;verticalLabelPosition=bottom;verticalAlign=top;outlineConnect=0;align=center;shape=mxgraph.office.concepts.folder;fillColor=#CCCBCB;swimlaneFillColor=none;" parent="oafEtDsmrgT4EUsuNafD-36" vertex="1">
          <mxGeometry x="130" y="300" width="50" height="45" as="geometry" />
        </mxCell>
        <mxCell id="oafEtDsmrgT4EUsuNafD-55" value="The Assets folder of the project contains:&lt;br&gt;The images and icons separated by type.&lt;br&gt;/backgrounds -&amp;gt; for backgrounds&lt;br&gt;/icons -&amp;gt; for icons&lt;br&gt;/icons/buttonIcon -&amp;gt; for icons used on buttons&lt;br&gt;/icons/labelIcons -&amp;gt; for icons used on labels" style="text;html=1;align=left;verticalAlign=middle;resizable=0;points=[];autosize=1;strokeColor=none;fillColor=none;fontSize=12;fontFamily=Helvetica;fontColor=#FFB366;fontStyle=1" parent="oafEtDsmrgT4EUsuNafD-36" vertex="1">
          <mxGeometry x="10" y="370" width="290" height="100" as="geometry" />
        </mxCell>
        <mxCell id="oafEtDsmrgT4EUsuNafD-46" value="/project" style="swimlane;whiteSpace=wrap;html=1;shadow=0;dashed=0;labelBackgroundColor=none;sketch=0;pointerEvents=1;fontFamily=Helvetica;fontSize=12;rounded=1;" parent="oafEtDsmrgT4EUsuNafD-20" vertex="1">
          <mxGeometry x="670" y="30" width="340" height="380" as="geometry" />
        </mxCell>
        <mxCell id="oafEtDsmrgT4EUsuNafD-48" style="edgeStyle=orthogonalEdgeStyle;shape=connector;rounded=1;orthogonalLoop=1;jettySize=auto;html=1;labelBackgroundColor=default;strokeColor=default;fontFamily=Helvetica;fontSize=12;fontColor=default;endArrow=classic;startSize=23;" parent="oafEtDsmrgT4EUsuNafD-46" source="oafEtDsmrgT4EUsuNafD-47" target="oafEtDsmrgT4EUsuNafD-42" edge="1">
          <mxGeometry relative="1" as="geometry" />
        </mxCell>
        <mxCell id="oafEtDsmrgT4EUsuNafD-47" value="/project" style="pointerEvents=1;shadow=0;dashed=0;html=1;strokeColor=none;labelPosition=center;verticalLabelPosition=bottom;verticalAlign=top;outlineConnect=0;align=center;shape=mxgraph.office.concepts.folder;fillColor=#CCCBCB;swimlaneFillColor=none;" parent="oafEtDsmrgT4EUsuNafD-46" vertex="1">
          <mxGeometry x="13" y="32.5" width="50" height="45" as="geometry" />
        </mxCell>
        <mxCell id="oafEtDsmrgT4EUsuNafD-50" style="edgeStyle=orthogonalEdgeStyle;shape=connector;rounded=1;orthogonalLoop=1;jettySize=auto;html=1;labelBackgroundColor=default;strokeColor=default;fontFamily=Helvetica;fontSize=12;fontColor=default;endArrow=classic;startSize=23;" parent="oafEtDsmrgT4EUsuNafD-46" source="oafEtDsmrgT4EUsuNafD-42" target="oafEtDsmrgT4EUsuNafD-49" edge="1">
          <mxGeometry relative="1" as="geometry" />
        </mxCell>
        <mxCell id="oafEtDsmrgT4EUsuNafD-42" value="diagrams" style="pointerEvents=1;shadow=0;dashed=0;html=1;strokeColor=none;labelPosition=center;verticalLabelPosition=bottom;verticalAlign=top;outlineConnect=0;align=center;shape=mxgraph.office.concepts.folder;fillColor=#CCCBCB;swimlaneFillColor=none;" parent="oafEtDsmrgT4EUsuNafD-46" vertex="1">
          <mxGeometry x="73" y="90" width="50" height="45" as="geometry" />
        </mxCell>
        <mxCell id="oafEtDsmrgT4EUsuNafD-49" value="/structure" style="pointerEvents=1;shadow=0;dashed=0;html=1;strokeColor=none;labelPosition=center;verticalLabelPosition=bottom;verticalAlign=top;outlineConnect=0;align=center;shape=mxgraph.office.concepts.folder;fillColor=#CCCBCB;swimlaneFillColor=none;" parent="oafEtDsmrgT4EUsuNafD-46" vertex="1">
          <mxGeometry x="133" y="150" width="50" height="45" as="geometry" />
        </mxCell>
        <mxCell id="oafEtDsmrgT4EUsuNafD-51" value="/docs" style="pointerEvents=1;shadow=0;dashed=0;html=1;strokeColor=none;labelPosition=center;verticalLabelPosition=bottom;verticalAlign=top;outlineConnect=0;align=center;shape=mxgraph.office.concepts.folder;fillColor=#CCCBCB;swimlaneFillColor=none;" parent="oafEtDsmrgT4EUsuNafD-46" vertex="1">
          <mxGeometry x="73" y="220" width="50" height="45" as="geometry" />
        </mxCell>
        <mxCell id="oafEtDsmrgT4EUsuNafD-56" value="The Project folder of the project contains:&lt;br&gt;Information and blueprints for the project.&lt;br&gt;/diagrams -&amp;gt; for blueprints and diagrams&lt;br&gt;/docs -&amp;gt; for other documents or text files for the project" style="text;html=1;align=left;verticalAlign=middle;resizable=0;points=[];autosize=1;strokeColor=none;fillColor=none;fontSize=12;fontFamily=Helvetica;fontColor=#FFB366;fontStyle=1" parent="oafEtDsmrgT4EUsuNafD-46" vertex="1">
          <mxGeometry x="10" y="310" width="340" height="70" as="geometry" />
        </mxCell>
        <mxCell id="oafEtDsmrgT4EUsuNafD-58" value="/src" style="swimlane;whiteSpace=wrap;html=1;shadow=0;dashed=0;labelBackgroundColor=none;sketch=0;pointerEvents=1;fontFamily=Helvetica;fontSize=12;rounded=1;" parent="oafEtDsmrgT4EUsuNafD-20" vertex="1">
          <mxGeometry x="1030" y="30" width="280" height="300" as="geometry" />
        </mxCell>
        <mxCell id="oafEtDsmrgT4EUsuNafD-66" style="edgeStyle=orthogonalEdgeStyle;shape=connector;rounded=1;orthogonalLoop=1;jettySize=auto;html=1;labelBackgroundColor=default;strokeColor=default;fontFamily=Helvetica;fontSize=12;fontColor=default;endArrow=classic;startSize=23;" parent="oafEtDsmrgT4EUsuNafD-58" source="oafEtDsmrgT4EUsuNafD-57" target="oafEtDsmrgT4EUsuNafD-59" edge="1">
          <mxGeometry relative="1" as="geometry" />
        </mxCell>
        <mxCell id="oafEtDsmrgT4EUsuNafD-57" value="/src" style="pointerEvents=1;shadow=0;dashed=0;html=1;strokeColor=none;labelPosition=center;verticalLabelPosition=bottom;verticalAlign=top;outlineConnect=0;align=center;shape=mxgraph.office.concepts.folder;fillColor=#CCCBCB;swimlaneFillColor=none;" parent="oafEtDsmrgT4EUsuNafD-58" vertex="1">
          <mxGeometry x="10" y="40" width="50" height="45" as="geometry" />
        </mxCell>
        <mxCell id="oafEtDsmrgT4EUsuNafD-59" value="/app" style="pointerEvents=1;shadow=0;dashed=0;html=1;strokeColor=none;labelPosition=center;verticalLabelPosition=bottom;verticalAlign=top;outlineConnect=0;align=center;shape=mxgraph.office.concepts.folder;fillColor=#CCCBCB;swimlaneFillColor=none;" parent="oafEtDsmrgT4EUsuNafD-58" vertex="1">
          <mxGeometry x="70" y="90" width="50" height="45" as="geometry" />
        </mxCell>
        <mxCell id="oafEtDsmrgT4EUsuNafD-61" value="/support" style="pointerEvents=1;shadow=0;dashed=0;html=1;strokeColor=none;labelPosition=center;verticalLabelPosition=bottom;verticalAlign=top;outlineConnect=0;align=center;shape=mxgraph.office.concepts.folder;fillColor=#CCCBCB;swimlaneFillColor=none;" parent="oafEtDsmrgT4EUsuNafD-58" vertex="1">
          <mxGeometry x="70" y="170" width="50" height="45" as="geometry" />
        </mxCell>
        <mxCell id="oafEtDsmrgT4EUsuNafD-62" value="The src folder of the project contains:&lt;br&gt;/app -&amp;gt; for main packages and classes&amp;nbsp;&lt;br&gt;/support -&amp;gt; for support packages and classes" style="text;html=1;align=left;verticalAlign=middle;resizable=0;points=[];autosize=1;strokeColor=none;fillColor=none;fontSize=12;fontFamily=Helvetica;fontColor=#FFB366;fontStyle=1" parent="oafEtDsmrgT4EUsuNafD-58" vertex="1">
          <mxGeometry x="10" y="240" width="280" height="60" as="geometry" />
        </mxCell>
        <mxCell id="oafEtDsmrgT4EUsuNafD-63" value="/app" style="swimlane;whiteSpace=wrap;html=1;shadow=0;dashed=0;labelBackgroundColor=none;sketch=0;pointerEvents=1;fontFamily=Helvetica;fontSize=12;rounded=1;" parent="oafEtDsmrgT4EUsuNafD-20" vertex="1">
          <mxGeometry x="10" y="510" width="250" height="380" as="geometry" />
        </mxCell>
        <mxCell id="oafEtDsmrgT4EUsuNafD-68" style="edgeStyle=orthogonalEdgeStyle;shape=connector;rounded=1;orthogonalLoop=1;jettySize=auto;html=1;labelBackgroundColor=default;strokeColor=default;fontFamily=Helvetica;fontSize=12;fontColor=default;endArrow=classic;startSize=23;" parent="oafEtDsmrgT4EUsuNafD-63" source="oafEtDsmrgT4EUsuNafD-64" target="oafEtDsmrgT4EUsuNafD-65" edge="1">
          <mxGeometry relative="1" as="geometry" />
        </mxCell>
        <mxCell id="oafEtDsmrgT4EUsuNafD-64" value="/app" style="pointerEvents=1;shadow=0;dashed=0;html=1;strokeColor=none;labelPosition=center;verticalLabelPosition=bottom;verticalAlign=top;outlineConnect=0;align=center;shape=mxgraph.office.concepts.folder;fillColor=#CCCBCB;swimlaneFillColor=none;" parent="oafEtDsmrgT4EUsuNafD-63" vertex="1">
          <mxGeometry x="10" y="30" width="50" height="45" as="geometry" />
        </mxCell>
        <mxCell id="oafEtDsmrgT4EUsuNafD-65" value="/components" style="pointerEvents=1;shadow=0;dashed=0;html=1;strokeColor=none;labelPosition=center;verticalLabelPosition=bottom;verticalAlign=top;outlineConnect=0;align=center;shape=mxgraph.office.concepts.folder;fillColor=#CCCBCB;swimlaneFillColor=none;" parent="oafEtDsmrgT4EUsuNafD-63" vertex="1">
          <mxGeometry x="70" y="90" width="50" height="45" as="geometry" />
        </mxCell>
        <mxCell id="oafEtDsmrgT4EUsuNafD-69" value="/frame" style="pointerEvents=1;shadow=0;dashed=0;html=1;strokeColor=none;labelPosition=center;verticalLabelPosition=bottom;verticalAlign=top;outlineConnect=0;align=center;shape=mxgraph.office.concepts.folder;fillColor=#CCCBCB;swimlaneFillColor=none;" parent="oafEtDsmrgT4EUsuNafD-63" vertex="1">
          <mxGeometry x="70" y="162" width="50" height="45" as="geometry" />
        </mxCell>
        <mxCell id="oafEtDsmrgT4EUsuNafD-70" value="/main" style="pointerEvents=1;shadow=0;dashed=0;html=1;strokeColor=none;labelPosition=center;verticalLabelPosition=bottom;verticalAlign=top;outlineConnect=0;align=center;shape=mxgraph.office.concepts.folder;fillColor=#CCCBCB;swimlaneFillColor=none;" parent="oafEtDsmrgT4EUsuNafD-63" vertex="1">
          <mxGeometry x="70" y="235" width="50" height="45" as="geometry" />
        </mxCell>
        <mxCell id="oafEtDsmrgT4EUsuNafD-71" value="The app folder of the project contains:&lt;br&gt;/components -&amp;gt; for component classes&lt;br&gt;/frame -&amp;gt; for the frame of the application&lt;br&gt;/main -&amp;gt; for the main class" style="text;html=1;align=left;verticalAlign=middle;resizable=0;points=[];autosize=1;strokeColor=none;fillColor=none;fontSize=12;fontFamily=Helvetica;fontColor=#FFB366;fontStyle=1" parent="oafEtDsmrgT4EUsuNafD-63" vertex="1">
          <mxGeometry x="10" y="310" width="250" height="70" as="geometry" />
        </mxCell>
        <mxCell id="oafEtDsmrgT4EUsuNafD-72" value="/app/components" style="swimlane;whiteSpace=wrap;html=1;shadow=0;dashed=0;labelBackgroundColor=none;sketch=0;pointerEvents=1;fontFamily=Helvetica;fontSize=12;rounded=1;" parent="oafEtDsmrgT4EUsuNafD-20" vertex="1">
          <mxGeometry x="270" y="510" width="420" height="520" as="geometry" />
        </mxCell>
        <mxCell id="oafEtDsmrgT4EUsuNafD-75" style="edgeStyle=orthogonalEdgeStyle;shape=connector;rounded=1;orthogonalLoop=1;jettySize=auto;html=1;labelBackgroundColor=default;strokeColor=default;fontFamily=Helvetica;fontSize=12;fontColor=default;endArrow=classic;startSize=23;" parent="oafEtDsmrgT4EUsuNafD-72" source="oafEtDsmrgT4EUsuNafD-67" target="oafEtDsmrgT4EUsuNafD-74" edge="1">
          <mxGeometry relative="1" as="geometry" />
        </mxCell>
        <mxCell id="oafEtDsmrgT4EUsuNafD-67" value="/components" style="pointerEvents=1;shadow=0;dashed=0;html=1;strokeColor=none;labelPosition=center;verticalLabelPosition=bottom;verticalAlign=top;outlineConnect=0;align=center;shape=mxgraph.office.concepts.folder;fillColor=#CCCBCB;swimlaneFillColor=none;" parent="oafEtDsmrgT4EUsuNafD-72" vertex="1">
          <mxGeometry x="20" y="35" width="50" height="45" as="geometry" />
        </mxCell>
        <mxCell id="oafEtDsmrgT4EUsuNafD-74" value="/buttons" style="pointerEvents=1;shadow=0;dashed=0;html=1;strokeColor=none;labelPosition=center;verticalLabelPosition=bottom;verticalAlign=top;outlineConnect=0;align=center;shape=mxgraph.office.concepts.folder;fillColor=#CCCBCB;swimlaneFillColor=none;" parent="oafEtDsmrgT4EUsuNafD-72" vertex="1">
          <mxGeometry x="80" y="100" width="50" height="45" as="geometry" />
        </mxCell>
        <mxCell id="oafEtDsmrgT4EUsuNafD-76" value="/complex" style="pointerEvents=1;shadow=0;dashed=0;html=1;strokeColor=none;labelPosition=center;verticalLabelPosition=bottom;verticalAlign=top;outlineConnect=0;align=center;shape=mxgraph.office.concepts.folder;fillColor=#CCCBCB;swimlaneFillColor=none;" parent="oafEtDsmrgT4EUsuNafD-72" vertex="1">
          <mxGeometry x="80" y="170" width="50" height="45" as="geometry" />
        </mxCell>
        <mxCell id="oafEtDsmrgT4EUsuNafD-77" value="/labels" style="pointerEvents=1;shadow=0;dashed=0;html=1;strokeColor=none;labelPosition=center;verticalLabelPosition=bottom;verticalAlign=top;outlineConnect=0;align=center;shape=mxgraph.office.concepts.folder;fillColor=#CCCBCB;swimlaneFillColor=none;" parent="oafEtDsmrgT4EUsuNafD-72" vertex="1">
          <mxGeometry x="80" y="237.5" width="50" height="45" as="geometry" />
        </mxCell>
        <mxCell id="oafEtDsmrgT4EUsuNafD-78" value="/panels" style="pointerEvents=1;shadow=0;dashed=0;html=1;strokeColor=none;labelPosition=center;verticalLabelPosition=bottom;verticalAlign=top;outlineConnect=0;align=center;shape=mxgraph.office.concepts.folder;fillColor=#CCCBCB;swimlaneFillColor=none;" parent="oafEtDsmrgT4EUsuNafD-72" vertex="1">
          <mxGeometry x="80" y="310" width="50" height="45" as="geometry" />
        </mxCell>
        <mxCell id="oafEtDsmrgT4EUsuNafD-79" value="/scrollpanels" style="pointerEvents=1;shadow=0;dashed=0;html=1;strokeColor=none;labelPosition=center;verticalLabelPosition=bottom;verticalAlign=top;outlineConnect=0;align=center;shape=mxgraph.office.concepts.folder;fillColor=#CCCBCB;swimlaneFillColor=none;" parent="oafEtDsmrgT4EUsuNafD-72" vertex="1">
          <mxGeometry x="80" y="380" width="50" height="45" as="geometry" />
        </mxCell>
        <mxCell id="oafEtDsmrgT4EUsuNafD-80" value="/textcontainers" style="pointerEvents=1;shadow=0;dashed=0;html=1;strokeColor=none;labelPosition=center;verticalLabelPosition=bottom;verticalAlign=top;outlineConnect=0;align=center;shape=mxgraph.office.concepts.folder;fillColor=#CCCBCB;swimlaneFillColor=none;" parent="oafEtDsmrgT4EUsuNafD-72" vertex="1">
          <mxGeometry x="80" y="450" width="50" height="45" as="geometry" />
        </mxCell>
        <mxCell id="oafEtDsmrgT4EUsuNafD-81" value="&lt;span&gt;The components folder of the project contains:&lt;br&gt;/buttons -&amp;gt; for buttons&lt;br&gt;/complex -&amp;gt; for complex components&lt;br&gt;/labels -&amp;gt; for labels&lt;br&gt;/panels -&amp;gt; for panels&lt;br&gt;/scrollpanels -&amp;gt; for scroll panels&lt;br&gt;/textcontainers -&amp;gt; for text containers&lt;br&gt;&lt;/span&gt;" style="text;html=1;align=left;verticalAlign=middle;resizable=0;points=[];autosize=1;strokeColor=none;fillColor=none;fontSize=12;fontFamily=Helvetica;fontColor=#FFB366;fontStyle=1" parent="oafEtDsmrgT4EUsuNafD-72" vertex="1">
          <mxGeometry x="140" y="35" width="290" height="110" as="geometry" />
        </mxCell>
        <mxCell id="oafEtDsmrgT4EUsuNafD-82" value="/support" style="swimlane;whiteSpace=wrap;html=1;shadow=0;dashed=0;labelBackgroundColor=none;sketch=0;pointerEvents=1;fontFamily=Helvetica;fontSize=12;rounded=1;" parent="oafEtDsmrgT4EUsuNafD-20" vertex="1">
          <mxGeometry x="700" y="420" width="260" height="380" as="geometry" />
        </mxCell>
        <mxCell id="oafEtDsmrgT4EUsuNafD-86" style="edgeStyle=orthogonalEdgeStyle;shape=connector;rounded=1;orthogonalLoop=1;jettySize=auto;html=1;labelBackgroundColor=default;strokeColor=default;fontFamily=Helvetica;fontSize=12;fontColor=default;endArrow=classic;startSize=23;" parent="oafEtDsmrgT4EUsuNafD-82" source="oafEtDsmrgT4EUsuNafD-83" target="oafEtDsmrgT4EUsuNafD-85" edge="1">
          <mxGeometry relative="1" as="geometry" />
        </mxCell>
        <mxCell id="oafEtDsmrgT4EUsuNafD-83" value="/support" style="pointerEvents=1;shadow=0;dashed=0;html=1;strokeColor=none;labelPosition=center;verticalLabelPosition=bottom;verticalAlign=top;outlineConnect=0;align=center;shape=mxgraph.office.concepts.folder;fillColor=#CCCBCB;swimlaneFillColor=none;" parent="oafEtDsmrgT4EUsuNafD-82" vertex="1">
          <mxGeometry x="10" y="35" width="50" height="45" as="geometry" />
        </mxCell>
        <mxCell id="oafEtDsmrgT4EUsuNafD-85" value="/appdata" style="pointerEvents=1;shadow=0;dashed=0;html=1;strokeColor=none;labelPosition=center;verticalLabelPosition=bottom;verticalAlign=top;outlineConnect=0;align=center;shape=mxgraph.office.concepts.folder;fillColor=#CCCBCB;swimlaneFillColor=none;" parent="oafEtDsmrgT4EUsuNafD-82" vertex="1">
          <mxGeometry x="70" y="100" width="50" height="45" as="geometry" />
        </mxCell>
        <mxCell id="oafEtDsmrgT4EUsuNafD-87" value="/framework" style="pointerEvents=1;shadow=0;dashed=0;html=1;strokeColor=none;labelPosition=center;verticalLabelPosition=bottom;verticalAlign=top;outlineConnect=0;align=center;shape=mxgraph.office.concepts.folder;fillColor=#CCCBCB;swimlaneFillColor=none;" parent="oafEtDsmrgT4EUsuNafD-82" vertex="1">
          <mxGeometry x="70" y="170" width="50" height="45" as="geometry" />
        </mxCell>
        <mxCell id="oafEtDsmrgT4EUsuNafD-88" value="/util" style="pointerEvents=1;shadow=0;dashed=0;html=1;strokeColor=none;labelPosition=center;verticalLabelPosition=bottom;verticalAlign=top;outlineConnect=0;align=center;shape=mxgraph.office.concepts.folder;fillColor=#CCCBCB;swimlaneFillColor=none;" parent="oafEtDsmrgT4EUsuNafD-82" vertex="1">
          <mxGeometry x="70" y="237.5" width="50" height="45" as="geometry" />
        </mxCell>
        <mxCell id="oafEtDsmrgT4EUsuNafD-89" value="The support folder of the project contains:&lt;br&gt;/appdata -&amp;gt; for data for the application&lt;br&gt;/framework -&amp;gt; for framework classes&lt;br&gt;/util -&amp;gt; for utility classes" style="text;html=1;align=left;verticalAlign=middle;resizable=0;points=[];autosize=1;strokeColor=none;fillColor=none;fontSize=12;fontFamily=Helvetica;fontColor=#FFB366;fontStyle=1" parent="oafEtDsmrgT4EUsuNafD-82" vertex="1">
          <mxGeometry x="10" y="310" width="270" height="70" as="geometry" />
        </mxCell>
        <mxCell id="oafEtDsmrgT4EUsuNafD-90" value="/support/framework" style="swimlane;whiteSpace=wrap;html=1;shadow=0;dashed=0;labelBackgroundColor=none;sketch=0;pointerEvents=1;fontFamily=Helvetica;fontSize=12;rounded=1;" parent="oafEtDsmrgT4EUsuNafD-20" vertex="1">
          <mxGeometry x="980" y="420" width="290" height="370" as="geometry" />
        </mxCell>
        <mxCell id="oafEtDsmrgT4EUsuNafD-93" style="edgeStyle=orthogonalEdgeStyle;shape=connector;rounded=1;orthogonalLoop=1;jettySize=auto;html=1;labelBackgroundColor=default;strokeColor=default;fontFamily=Helvetica;fontSize=12;fontColor=default;endArrow=classic;startSize=23;" parent="oafEtDsmrgT4EUsuNafD-90" source="oafEtDsmrgT4EUsuNafD-91" target="oafEtDsmrgT4EUsuNafD-92" edge="1">
          <mxGeometry relative="1" as="geometry" />
        </mxCell>
        <mxCell id="oafEtDsmrgT4EUsuNafD-91" value="/framework" style="pointerEvents=1;shadow=0;dashed=0;html=1;strokeColor=none;labelPosition=center;verticalLabelPosition=bottom;verticalAlign=top;outlineConnect=0;align=center;shape=mxgraph.office.concepts.folder;fillColor=#CCCBCB;swimlaneFillColor=none;" parent="oafEtDsmrgT4EUsuNafD-90" vertex="1">
          <mxGeometry x="10" y="35" width="50" height="45" as="geometry" />
        </mxCell>
        <mxCell id="oafEtDsmrgT4EUsuNafD-92" value="/appearances" style="pointerEvents=1;shadow=0;dashed=0;html=1;strokeColor=none;labelPosition=center;verticalLabelPosition=bottom;verticalAlign=top;outlineConnect=0;align=center;shape=mxgraph.office.concepts.folder;fillColor=#CCCBCB;swimlaneFillColor=none;" parent="oafEtDsmrgT4EUsuNafD-90" vertex="1">
          <mxGeometry x="70" y="90" width="50" height="45" as="geometry" />
        </mxCell>
        <mxCell id="oafEtDsmrgT4EUsuNafD-94" value="/factory" style="pointerEvents=1;shadow=0;dashed=0;html=1;strokeColor=none;labelPosition=center;verticalLabelPosition=bottom;verticalAlign=top;outlineConnect=0;align=center;shape=mxgraph.office.concepts.folder;fillColor=#CCCBCB;swimlaneFillColor=none;" parent="oafEtDsmrgT4EUsuNafD-90" vertex="1">
          <mxGeometry x="70" y="160" width="50" height="45" as="geometry" />
        </mxCell>
        <mxCell id="oafEtDsmrgT4EUsuNafD-95" value="/interfaces" style="pointerEvents=1;shadow=0;dashed=0;html=1;strokeColor=none;labelPosition=center;verticalLabelPosition=bottom;verticalAlign=top;outlineConnect=0;align=center;shape=mxgraph.office.concepts.folder;fillColor=#CCCBCB;swimlaneFillColor=none;" parent="oafEtDsmrgT4EUsuNafD-90" vertex="1">
          <mxGeometry x="70" y="230" width="50" height="45" as="geometry" />
        </mxCell>
        <mxCell id="oafEtDsmrgT4EUsuNafD-96" value="The framework folder of the project contains:&lt;br&gt;/appearances -&amp;gt; for appearance classes&lt;br&gt;/factory -&amp;gt; for the ComponentBuilder class&lt;br&gt;/ interfaces -&amp;gt; for framework interfaces" style="text;html=1;align=left;verticalAlign=middle;resizable=0;points=[];autosize=1;strokeColor=none;fillColor=none;fontSize=12;fontFamily=Helvetica;fontColor=#FFB366;fontStyle=1" parent="oafEtDsmrgT4EUsuNafD-90" vertex="1">
          <mxGeometry x="10" y="300" width="280" height="70" as="geometry" />
        </mxCell>
        <mxCell id="oafEtDsmrgT4EUsuNafD-97" value="&lt;h1&gt;Summary&lt;/h1&gt;&lt;p&gt;This diagram shows the folder structure of the project, and describes where does certain classes should be put.&lt;/p&gt;" style="text;html=1;strokeColor=none;fillColor=none;spacing=5;spacingTop=-20;whiteSpace=wrap;overflow=hidden;rounded=0;fontSize=12;fontFamily=Helvetica;fontColor=default;fontStyle=1" parent="1" vertex="1">
          <mxGeometry x="40" y="330" width="190" height="120" as="geometry" />
        </mxCell>
      </root>
    </mxGraphModel>
  </diagram>
</mxfile>
